<?xml version="1.0" encoding="utf-8"?>
<!-- Generator: Adobe Illustrator 19.2.0, SVG Export Plug-In . SVG Version: 6.00 Build 0)  -->
<svg version="1.1" id="Layer_1" xmlns="http://www.w3.org/2000/svg" xmlns:xlink="http://www.w3.org/1999/xlink" x="0px" y="0px"
	 viewBox="0 0 44 44" style="enable-background:new 0 0 44 44;" xml:space="preserve">
<g>
	<path d="M36.5,15.24l-1.81,0.84C31.43,9.09,23.08,6.05,16.08,9.31C11.33,11.53,8.4,16.1,8.03,21H6.02
		c0.36-5.66,3.73-10.94,9.22-13.5C23.25,3.76,32.77,7.23,36.5,15.24z"/>
	<polygon points="36.085,16.718 30.446,14.666 29.762,16.546 35.401,18.598 37.28,19.282 37.964,17.402 40.016,11.764 38.137,11.08 
			"/>
	<rect x="35.017" y="15.567" transform="matrix(0.9063 -0.4226 0.4226 0.9063 -3.627 16.7737)" width="2" height="2"/>
</g>
<g>
	<path d="M7.5,28.76l1.81-0.84c3.26,6.99,11.61,10.03,18.61,6.77c4.75-2.22,7.68-6.79,8.05-11.69h2.01
		c-0.36,5.66-3.73,10.94-9.22,13.5C20.75,40.24,11.23,36.77,7.5,28.76z"/>
	<polygon points="7.915,27.282 13.554,29.334 14.238,27.454 8.599,25.402 6.72,24.718 6.036,26.598 3.984,32.236 5.863,32.92 	"/>
	<rect x="6.983" y="26.433" transform="matrix(-0.9063 0.4226 -0.4226 -0.9063 26.8113 48.922)" width="2" height="2"/>
</g>
</svg>
