<?xml version="1.0" encoding="utf-8"?>
<!-- Generator: Adobe Illustrator 19.2.0, SVG Export Plug-In . SVG Version: 6.00 Build 0)  -->
<svg version="1.1" id="Layer_1" xmlns="http://www.w3.org/2000/svg" xmlns:xlink="http://www.w3.org/1999/xlink" x="0px" y="0px"
	 viewBox="0 0 44 44" style="enable-background:new 0 0 44 44;" xml:space="preserve">
<style type="text/css">
	.st0{display:none;}
</style>
<path d="M22,10H6V8h16V10z M22,14H6v-2h16V14z M14,18H6v-2h8V18z M24,2H4C1.8,2,0,3.8,0,6v14c0,2.2,1.8,4,4,4h2v-2H4
	c-1.1,0-2-0.9-2-2V6c0-1.1,0.9-2,2-2h20c1.1,0,2,0.9,2,2v8h2V6C28,3.8,26.2,2,24,2z M7,24h7v-2H9L7,24z M9,22l-3,3v-3H4v6h2l6-6H9z
	 M22,22h16v2H22V22z M22,26h16v2H22V26z M22,30h8v2h-8V30z M16,20v14c0,2.2,1.8,4,4,4h17l-2-2H20c-1.1,0-2-0.9-2-2V20
	c0-1.1,0.9-2,2-2h20c1.1,0,2,0.9,2,2v14c0,1.1-0.9,2-2,2h-2v2h2c2.2,0,4-1.8,4-4V20c0-2.2-1.8-4-4-4H20C17.8,16,16,17.8,16,20z
	 M32,36l6,6h2v-6h-2v3l-3-3H32z"/>
</svg>
