<?xml version="1.0" encoding="utf-8"?>
<!-- Generator: Adobe Illustrator 19.2.0, SVG Export Plug-In . SVG Version: 6.00 Build 0)  -->
<svg version="1.1" id="Layer_1" xmlns="http://www.w3.org/2000/svg" xmlns:xlink="http://www.w3.org/1999/xlink" x="0px" y="0px"
	 viewBox="0 0 44 44" style="enable-background:new 0 0 44 44;" xml:space="preserve">
<style type="text/css">
	.st0{fill:#010101;}
	.st1{fill:none;}
</style>
<path d="M40,6H28V2c0-1.1-0.9-2-2-2h-8c-1.1,0-2,0.9-2,2v4H4c-2.2,0-4,1.8-4,4v24c0,2.2,1.8,4,4,4h36c2.2,0,4-1.8,4-4V10
	C44,7.8,42.2,6,40,6z M18,2h8v4h-8V2z M42,34c0,1.1-0.9,2-2,2H4c-1.1,0-2-0.9-2-2V10c0-1.1,0.9-2,2-2h36c1.1,0,2,0.9,2,2V34z M23,26
	h-2V14h2V26z M23,30h-2v-2h2V30z"/>
</svg>
