<?xml version="1.0" encoding="utf-8"?>
<!-- Generator: Adobe Illustrator 19.2.0, SVG Export Plug-In . SVG Version: 6.00 Build 0)  -->
<svg version="1.1" id="Layer_1" xmlns="http://www.w3.org/2000/svg" xmlns:xlink="http://www.w3.org/1999/xlink" x="0px" y="0px"
	 viewBox="0 0 44 44" style="enable-background:new 0 0 44 44;" xml:space="preserve">
<style type="text/css">
	.st0{fill:#010101;}
	.st1{fill:none;}
</style>
<path d="M40,6H28V2c0-1.1-0.9-2-2-2h-8c-1.1,0-2,0.9-2,2v4H4c-2.2,0-4,1.8-4,4v24c0,2.2,1.8,4,4,4h36c2.2,0,4-1.8,4-4V10
	C44,7.8,42.2,6,40,6z M18,2h8v4h-8V2z M42,19H29v2h13v13c0,1.1-0.9,2-2,2H4c-1.1,0-2-0.9-2-2V21h13v-2H2v-9c0-1.1,0.9-2,2-2h36
	c1.1,0,2,0.9,2,2V19z M28.5,12l1.5,1.5l-3,3L23.5,20l3.5,3.5l3,3L28.5,28l-3-3L22,21.5L18.5,25l-3,3L14,26.5l3-3l3.5-3.5L17,16.5
	l-3-3l1.5-1.5l3,3l3.5,3.5l3.5-3.5L28.5,12z"/>
</svg>
