<?xml version="1.0" encoding="utf-8"?>
<!-- Generator: Adobe Illustrator 19.2.0, SVG Export Plug-In . SVG Version: 6.00 Build 0)  -->
<svg version="1.1" id="Layer_1" xmlns="http://www.w3.org/2000/svg" xmlns:xlink="http://www.w3.org/1999/xlink" x="0px" y="0px"
	 viewBox="0 0 44 44" style="enable-background:new 0 0 44 44;" xml:space="preserve">
<path d="M23,17h-2v-4h2V17z M44,10v24c0,2.2-1.8,4-4,4H4c-2.2,0-4-1.8-4-4V21v-2v-9c0-2.2,1.8-4,4-4h12V2c0-1.1,0.9-2,2-2h8
	c1.1,0,2,0.9,2,2v4h12C42.2,6,44,7.8,44,10z M18,6h8V2h-8V6z M42,21H2v13c0,1.103,0.897,2,2,2h36c1.103,0,2-0.897,2-2V21z M42,10
	c0-1.103-0.897-2-2-2H26h-8H4c-1.103,0-2,0.897-2,2v9h40V10z"/>
</svg>
