<?xml version="1.0" encoding="utf-8"?>
<!-- Generator: Adobe Illustrator 19.2.0, SVG Export Plug-In . SVG Version: 6.00 Build 0)  -->
<svg version="1.1" id="Layer_1" xmlns="http://www.w3.org/2000/svg" xmlns:xlink="http://www.w3.org/1999/xlink" x="0px" y="0px"
	 viewBox="0 0 44 44" style="enable-background:new 0 0 44 44;" xml:space="preserve">
<path d="M40,2h-6c0-1.1-0.9-2-2-2s-2,0.9-2,2H14c0-1.1-0.9-2-2-2s-2,0.9-2,2H4C1.8,2,0,3.8,0,6v34c0,2.2,1.8,4,4,4h36
	c2.2,0,4-1.8,4-4V6C44,3.8,42.2,2,40,2z M42,40c0,1.103-0.897,2-2,2H4c-1.103,0-2-0.897-2-2V12h40V40z M42,10H2V6
	c0-1.103,0.897-2,2-2h6v2c0,1.1,0.9,2,2,2s2-0.9,2-2V4h16v2c0,1.1,0.9,2,2,2s2-0.9,2-2V4h6c1.103,0,2,0.897,2,2V10z M6,16v1v1v4v2v4
	v2v4v2h33v-2v-4v-2v-4v-2v-4v-1v-1H6z M37,34H8v-4h29V34z M37,28H8v-4h29V28z M37,22H8v-4h29V22z"/>
</svg>
