<?xml version="1.0" encoding="utf-8"?>
<!-- Generator: Adobe Illustrator 19.2.0, SVG Export Plug-In . SVG Version: 6.00 Build 0)  -->
<svg version="1.1" id="Layer_1" xmlns="http://www.w3.org/2000/svg" xmlns:xlink="http://www.w3.org/1999/xlink" x="0px" y="0px"
	 viewBox="0 0 44 44" style="enable-background:new 0 0 44 44;" xml:space="preserve">
<style type="text/css">
	.st0{fill:#010101;}
	.st1{fill:none;}
</style>
<path d="M40,2H4C1.8,2,0,3.8,0,6v24c0,2.2,1.8,4,4,4v6h2l6-6h28c2.2,0,4-1.8,4-4V6C44,3.8,42.2,2,40,2z M42,30c0,1.1-0.9,2-2,2H14
	h-3l-2,2l-3,3v-3v-2H4c-1.1,0-2-0.9-2-2V6c0-1.1,0.9-2,2-2h36c1.1,0,2,0.9,2,2V30z M38,12H6v-2h32V12z M38,18H6v-2h32V18z M38,24H6
	v-2h32V24z"/>
</svg>
