<?xml version="1.0" encoding="utf-8"?>
<!-- Generator: Adobe Illustrator 19.2.0, SVG Export Plug-In . SVG Version: 6.00 Build 0)  -->
<svg version="1.1" id="Layer_1" xmlns="http://www.w3.org/2000/svg" xmlns:xlink="http://www.w3.org/1999/xlink" x="0px" y="0px"
	 viewBox="0 0 44 44" style="enable-background:new 0 0 44 44;" xml:space="preserve">
<style type="text/css">
	.st0{display:none;}
	.st1{fill:#010101;}
</style>
<path class="st1" d="M40,16H28.815L32,4.504V3c0-1.66-1.34-3-3-3h-3v0.041L25.958,0L10.01,15.99H9.99V40H10
	c0,2.196,1.768,3.973,3.958,3.996V44h24.01H38h1v-0.077L44,25.5V20C44,17.79,42.21,16,40,16z M42,25l-4.789,17H14c-1.1,0-2-0.9-2-2
	h0.01V16.99L26.98,2H29c0.55,0,1,0.45,1,1l0.001,1l-3.516,12.194L26,18h2h12c1.1,0,2,0.9,2,2V25z M0,40h8V16H0V40z M2,18h4v20H2V18z
	"/>
</svg>
