<?xml version="1.0" encoding="utf-8"?>
<!-- Generator: Adobe Illustrator 19.2.0, SVG Export Plug-In . SVG Version: 6.00 Build 0)  -->
<svg version="1.1" id="Layer_1" xmlns="http://www.w3.org/2000/svg" xmlns:xlink="http://www.w3.org/1999/xlink" x="0px" y="0px"
	 viewBox="0 0 44 44" style="enable-background:new 0 0 44 44;" xml:space="preserve">
<style type="text/css">
	.st0{display:none;}
</style>
<path d="M27,0H0v44h22v-2H2V2h22v10h10v14l2-2V9L27,0z M26,10V2l8,8H26z M39.505,30.505l1.5,1.5L29,44h-3h-2v-2.84v-2.15V39
	l12.005-11.995l1.5,1.5L26,40v2h2L39.505,30.505z M38.992,24L37,26l4.992,5.008l2.016-2L38.992,24z M28,20v2H8v-2H28z M28,28H8v-2
	h20V28z M8,32h16v2H8V32z M14,10H8v6h6V10z"/>
</svg>
