<?xml version="1.0" encoding="utf-8"?>
<!-- Generator: Adobe Illustrator 19.2.0, SVG Export Plug-In . SVG Version: 6.00 Build 0)  -->
<svg version="1.1" id="Layer_1" xmlns="http://www.w3.org/2000/svg" xmlns:xlink="http://www.w3.org/1999/xlink" x="0px" y="0px"
	 viewBox="0 0 44 44" style="enable-background:new 0 0 44 44;" xml:space="preserve">
<style type="text/css">
	.st0{display:none;}
</style>
<path d="M31,0h-3H6H4v44h1h1h32h1h1V10V9L31,0z M6,42V2h22v10h10v30H6z M30,10V2l8,8H30z M22,16c-4.44,0-8.27,3.16-10,7
	c1.73,3.84,5.56,7,10,7s8.27-3.16,10-7C30.27,19.16,26.44,16,22,16z M22,28c-2.76,0-5-2.24-5-5s2.24-5,5-5s5,2.24,5,5
	S24.76,28,22,28z M25,23c0,1.657-1.343,3-3,3s-3-1.343-3-3s1.343-3,3-3S25,21.343,25,23z"/>
</svg>
