<?xml version="1.0" encoding="utf-8"?>
<!-- Generator: Adobe Illustrator 19.2.0, SVG Export Plug-In . SVG Version: 6.00 Build 0)  -->
<svg version="1.1" id="Layer_1" xmlns="http://www.w3.org/2000/svg" xmlns:xlink="http://www.w3.org/1999/xlink" x="0px" y="0px"
	 viewBox="0 0 44 44" style="enable-background:new 0 0 44 44;" xml:space="preserve">
<style type="text/css">
	.st0{display:none;}
</style>
<path d="M31,0h-3H6H4v44h1h1h32h1h1V10V9L31,0z M6,42V2h22v10h10v30H6z M30,10V2l8,8H30z M26,27l1.5-1.5L32,21l-1.5-1.5L26,24
	l-2.5-2.5L22,23l2.5,2.5L26,27z M13.5,27l2.25-2.25L18,27l1.5-1.5l-2.25-2.25L19.5,21L18,19.5l-2.25,2.25L13.5,19.5L12,21l2.25,2.25
	L12,25.5L13.5,27z"/>
</svg>
