<?xml version="1.0" encoding="utf-8"?>
<!-- Generator: Adobe Illustrator 19.2.0, SVG Export Plug-In . SVG Version: 6.00 Build 0)  -->
<svg version="1.1" id="Layer_1" xmlns="http://www.w3.org/2000/svg" xmlns:xlink="http://www.w3.org/1999/xlink" x="0px" y="0px"
	 viewBox="0 0 44 44" style="enable-background:new 0 0 44 44;" xml:space="preserve">
<path d="M23.5,21.964l10.484,10.445l-1.5,1.498L22,23.459L11.516,33.907l-1.5-1.498L20.5,21.964L10,11.5l1.491-1.5L22,20.47
	L32.509,10L34,11.5L23.5,21.964z M22,2C10.972,2,2,10.972,2,22s8.972,20,20,20s20-8.972,20-20S33.028,2,22,2 M22,0
	c12.15,0,22,9.85,22,22s-9.85,22-22,22C9.85,44,0,34.15,0,22S9.85,0,22,0L22,0z"/>
</svg>
