<?xml version="1.0" encoding="utf-8"?>
<!-- Generator: Adobe Illustrator 19.2.0, SVG Export Plug-In . SVG Version: 6.00 Build 0)  -->
<svg version="1.1" id="Layer_1" xmlns="http://www.w3.org/2000/svg" xmlns:xlink="http://www.w3.org/1999/xlink" x="0px" y="0px"
	 viewBox="0 0 44 44" style="enable-background:new 0 0 44 44;" xml:space="preserve">
<style type="text/css">
	.st0{display:none;}
	.st1{fill:#010101;}
</style>
<path d="M39.997,9L31,0.003V0h-1h-2H6H4v2v40v2h2h32h2v-2V10L39.997,9z M37.997,10H30V2.003L37.997,10z M6,42V2h22v8v1v1h10v30H6z
	 M32,20v2H12v-2H32z M32,28H12v-2h20V28z M12,32h20v2H12V32z M14,12h2c1.103,0,2,0.897,2,2v2h2v-2c0-1.202-0.541-2.267-1.38-3
	C19.459,10.267,20,9.202,20,8c0-2.209-1.791-4-4-4h-2h-2v2v4v2v4h2V12z M14,6h2c1.103,0,2,0.897,2,2s-0.897,2-2,2h-2V6z"/>
</svg>
