<?xml version="1.0" encoding="utf-8"?>
<!-- Generator: Adobe Illustrator 19.2.0, SVG Export Plug-In . SVG Version: 6.00 Build 0)  -->
<svg version="1.1" id="Layer_1" xmlns="http://www.w3.org/2000/svg" xmlns:xlink="http://www.w3.org/1999/xlink" x="0px" y="0px"
	 viewBox="0 0 44 44" style="enable-background:new 0 0 44 44;" xml:space="preserve">
<path d="M31,0h-1h-2H6H4v2v40v2h2h32h2v-2V10V9L31,0z M6,42V2h22v8v1v1h10v30H6z M30,10V2l8,8H30z M28,20c0-3.314-2.686-6-6-6h-4h-2
	v2v8v2v6h2v-6h4c2.206,0,4,1.794,4,4v2h2v-2c0-2.088-1.068-3.925-2.686-5C26.932,23.925,28,22.088,28,20z M22,24h-4v-8h4
	c2.206,0,4,1.794,4,4S24.206,24,22,24z"/>
</svg>
