<?xml version="1.0" encoding="utf-8"?>
<!-- Generator: Adobe Illustrator 19.2.0, SVG Export Plug-In . SVG Version: 6.00 Build 0)  -->
<svg version="1.1" id="Layer_1" xmlns="http://www.w3.org/2000/svg" xmlns:xlink="http://www.w3.org/1999/xlink" x="0px" y="0px"
	 viewBox="0 0 44 44" style="enable-background:new 0 0 44 44;" xml:space="preserve">
<style type="text/css">
	.st0{fill:#010101;}
	.st1{fill:none;}
</style>
<path d="M32,22.006l-9.991,10.006l-1.512-1.492L28.142,23H0v-2h28.13l-7.633-7.508L22.009,12L32,22.006z M40,0H16.031
	c-2.209,0-4,1.791-4,4v13h2V4c0-1.103,0.897-2,2-2H40c1.103,0,2,0.897,2,2v36c0,1.103-0.897,2-2,2H16.031c-1.103,0-2-0.897-2-2V27
	h-2v13c0,2.209,1.791,4,4,4H40c2.209,0,4-1.791,4-4V4C44,1.791,42.209,0,40,0z"/>
</svg>
