<?xml version="1.0" encoding="utf-8"?>
<!-- Generator: Adobe Illustrator 19.2.0, SVG Export Plug-In . SVG Version: 6.00 Build 0)  -->
<svg version="1.1" id="Layer_1" xmlns="http://www.w3.org/2000/svg" xmlns:xlink="http://www.w3.org/1999/xlink" x="0px" y="0px"
	 viewBox="0 0 44 44" style="enable-background:new 0 0 44 44;" xml:space="preserve">
<style type="text/css">
	.st0{fill:#010101;}
</style>
<path d="M22,8C12.32,8,3.97,13.74,0.19,22C3.97,30.26,12.32,36,22,36s18.03-5.74,21.81-14C40.03,13.74,31.68,8,22,8z M22,34
	c-8.27,0-15.86-4.68-19.59-12C6.14,14.68,13.73,10,22,10s15.86,4.68,19.59,12C37.86,29.32,30.27,34,22,34z M22,18
	c2.206,0,4,1.794,4,4s-1.794,4-4,4s-4-1.794-4-4S19.794,18,22,18 M22,14c-4.418,0-8,3.582-8,8s3.582,8,8,8s8-3.582,8-8
	S26.418,14,22,14L22,14z"/>
</svg>
