<?xml version="1.0" encoding="utf-8"?>
<!-- Generator: Adobe Illustrator 19.2.0, SVG Export Plug-In . SVG Version: 6.00 Build 0)  -->
<svg version="1.1" id="Layer_1" xmlns="http://www.w3.org/2000/svg" xmlns:xlink="http://www.w3.org/1999/xlink" x="0px" y="0px"
	 viewBox="0 0 44 44" style="enable-background:new 0 0 44 44;" xml:space="preserve">
<style type="text/css">
	.st0{fill:#010101;}
</style>
<path d="M22,14c-4.42,0-8,3.58-8,8c0,1.08,0.22,2.11,0.61,3.06l3.41-3.41c0.16-1.93,1.7-3.47,3.63-3.63l3.41-3.41
	C24.11,14.22,23.08,14,22,14z M29.39,18.94l-3.41,3.41c-0.16,1.93-1.7,3.47-3.63,3.63l-3.41,3.41C19.89,29.78,20.92,30,22,30
	c4.42,0,8-3.58,8-8C30,20.92,29.78,19.89,29.39,18.94z M22,8C12.32,8,3.97,13.74,0.19,22c1.76,3.84,4.5,7.14,7.91,9.57l1.45-1.45
	C6.57,28.09,4.1,25.31,2.41,22C6.14,14.68,13.73,10,22,10c2.29,0,4.52,0.36,6.64,1.03l1.58-1.58C27.66,8.51,24.89,8,22,8z
	 M35.9,12.43l-1.45,1.45c2.98,2.03,5.45,4.81,7.14,8.12C37.86,29.32,30.27,34,22,34c-2.29,0-4.52-0.36-6.64-1.03l-1.58,1.58
	C16.34,35.49,19.11,36,22,36c9.68,0,18.03-5.74,21.81-14C42.05,18.16,39.31,14.86,35.9,12.43z M38,7.5L7.5,38L6,36.5L36.5,6L38,7.5z
	"/>
</svg>
