<?xml version="1.0" encoding="utf-8"?>
<!-- Generator: Adobe Illustrator 19.2.0, SVG Export Plug-In . SVG Version: 6.00 Build 0)  -->
<svg version="1.1" id="Layer_1" xmlns="http://www.w3.org/2000/svg" xmlns:xlink="http://www.w3.org/1999/xlink" x="0px" y="0px"
	 viewBox="0 0 44 44" style="enable-background:new 0 0 44 44;" xml:space="preserve">
<style type="text/css">
	.st0{display:none;}
	.st1{fill:#010101;}
</style>
<path d="M28,22c0,3.31-2.69,6-6,6s-6-2.69-6-6s2.69-6,6-6S28,18.69,28,22z M43.81,22C40.03,30.26,31.68,36,22,36S3.97,30.26,0.19,22
	C3.97,13.74,12.32,8,22,8S40.03,13.74,43.81,22z M32,22c0-5.52-4.48-10-10-10s-10,4.48-10,10c0,5.52,4.48,10,10,10S32,27.52,32,22z"
	/>
</svg>
