<?xml version="1.0" encoding="utf-8"?>
<!-- Generator: Adobe Illustrator 19.2.0, SVG Export Plug-In . SVG Version: 6.00 Build 0)  -->
<svg version="1.1" id="Layer_1" xmlns="http://www.w3.org/2000/svg" xmlns:xlink="http://www.w3.org/1999/xlink" x="0px" y="0px"
	 viewBox="0 0 44 44" style="enable-background:new 0 0 44 44;" xml:space="preserve">
<path d="M42,0h-8v2h6.58l-8.005,7.943C31.041,8.73,29.107,8,27,8c-4.971,0-9,4.029-9,9c0,0.362,0.028,0.718,0.069,1.069
	C17.718,18.028,17.362,18,17,18c-4.971,0-9,4.029-9,9c0,2.107,0.73,4.041,1.943,5.575l-4.439,4.432L1.5,33.005l-1.5,1.5l4.002,4
	L0,42.5L1.5,44l3.999-3.999L9.5,44l1.5-1.5l-4.001-3.999l4.436-4.436C12.967,35.273,14.897,36,17,36c4.971,0,9-4.029,9-9
	c0-0.362-0.028-0.718-0.069-1.069C26.282,25.972,26.638,26,27,26c4.971,0,9-4.029,9-9c0-2.104-0.728-4.035-1.938-5.568L42,3.571V10
	h2V2V0H42z M24,27c0,3.86-3.14,7-7,7s-7-3.14-7-7s3.14-7,7-7c0.549,0,1.08,0.07,1.593,0.19c0.912,2.401,2.817,4.306,5.218,5.218
	C23.93,25.92,24,26.451,24,27z M27,24c-0.549,0-1.08-0.07-1.593-0.19c-0.912-2.401-2.817-4.306-5.218-5.218
	C20.07,18.08,20,17.549,20,17c0-3.86,3.14-7,7-7s7,3.14,7,7S30.86,24,27,24z"/>
</svg>
