<?xml version="1.0" encoding="utf-8"?>
<!-- Generator: Adobe Illustrator 19.2.0, SVG Export Plug-In . SVG Version: 6.00 Build 0)  -->
<svg version="1.1" id="Layer_1" xmlns="http://www.w3.org/2000/svg" xmlns:xlink="http://www.w3.org/1999/xlink" x="0px" y="0px"
	 viewBox="0 0 44 44" style="enable-background:new 0 0 44 44;" xml:space="preserve">
<style type="text/css">
	.st0{fill:#010101;}
	.st1{fill:none;}
</style>
<path d="M43.993,22.29c0.001-0.075,0.007-0.149,0.007-0.225c0-0.01-0.001-0.019-0.001-0.029C43.999,22.024,44,22.012,44,22
	c0-0.021-0.003-0.041-0.003-0.062c0.001-4.837-1.577-9.313-4.251-12.945c-0.002-0.003-0.004-0.006-0.006-0.009
	c-0.349-0.473-0.719-0.929-1.104-1.372c-0.061-0.07-0.12-0.141-0.181-0.211c-0.353-0.396-0.721-0.778-1.102-1.148
	c-0.107-0.104-0.214-0.208-0.323-0.31c-0.36-0.336-0.731-0.661-1.113-0.973c-0.144-0.118-0.29-0.231-0.437-0.345
	c-0.372-0.289-0.751-0.569-1.142-0.834c-0.166-0.113-0.337-0.218-0.506-0.326c-0.327-0.209-0.66-0.41-0.999-0.602
	c-0.234-0.132-0.47-0.259-0.708-0.383c-0.329-0.171-0.663-0.333-1.001-0.488c-0.218-0.1-0.436-0.198-0.658-0.291
	c-0.402-0.168-0.81-0.321-1.224-0.466c-0.18-0.063-0.359-0.127-0.541-0.185c-0.48-0.154-0.969-0.288-1.463-0.409
	c-0.154-0.037-0.307-0.074-0.462-0.109c-0.539-0.12-1.086-0.22-1.64-0.3c-0.043-0.006-0.084-0.017-0.127-0.023
	c-0.085-0.012-0.172-0.016-0.257-0.027c-0.298-0.038-0.599-0.069-0.901-0.095c-0.172-0.015-0.342-0.031-0.515-0.041
	C22.911,0.02,22.483,0.002,22.052,0c-0.009,0-0.018,0.001-0.028,0.001C22.016,0.001,22.008,0,22,0c-0.033,0-0.066,0.003-0.099,0.003
	c-0.446,0.001-0.887,0.018-1.326,0.045c-0.101,0.006-0.201,0.014-0.302,0.022c-3.616,0.275-6.987,1.428-9.904,3.252
	c-0.019,0.012-0.038,0.024-0.057,0.036C9.889,3.625,9.475,3.903,9.073,4.197C9.061,4.205,9.049,4.213,9.038,4.221
	c-0.396,0.29-0.781,0.593-1.156,0.907C7.822,5.18,7.763,5.232,7.703,5.283C7.397,5.546,7.099,5.816,6.808,6.095
	C6.736,6.164,6.663,6.23,6.592,6.3C6.278,6.609,5.973,6.927,5.677,7.255c-0.099,0.11-0.194,0.223-0.291,0.334
	c-0.201,0.233-0.398,0.469-0.59,0.71C4.688,8.436,4.578,8.572,4.472,8.711c-0.24,0.317-0.473,0.64-0.696,0.971
	c-0.117,0.173-0.227,0.351-0.34,0.527c-0.125,0.197-0.248,0.396-0.367,0.597c-0.117,0.198-0.234,0.395-0.345,0.596
	c-0.139,0.253-0.271,0.511-0.401,0.771c-0.146,0.292-0.285,0.588-0.418,0.887c-0.081,0.182-0.161,0.365-0.237,0.55
	c-0.096,0.232-0.191,0.465-0.279,0.702c-0.083,0.222-0.158,0.448-0.234,0.673c-0.118,0.351-0.227,0.705-0.328,1.063
	c-0.061,0.216-0.119,0.432-0.173,0.65c-0.056,0.227-0.111,0.453-0.16,0.683c-0.07,0.326-0.131,0.656-0.187,0.987
	c-0.039,0.235-0.073,0.472-0.105,0.71c-0.043,0.318-0.079,0.638-0.108,0.961c-0.015,0.173-0.03,0.346-0.041,0.52
	C0.023,21.022,0.002,21.489,0,21.96c0,0.008,0,0.015,0,0.023C0.001,21.989,0,21.994,0,22c0,0.093,0.006,0.185,0.007,0.278
	c0.064,5.962,2.502,11.352,6.43,15.271c0.04,0.04,0.083,0.079,0.124,0.119c0.202,0.198,0.404,0.395,0.613,0.585
	c0.205,0.187,0.415,0.367,0.627,0.546c0.047,0.04,0.093,0.082,0.141,0.122c3.704,3.081,8.436,4.963,13.606,5.068
	c0.126,0.003,0.25,0.011,0.376,0.012c0.02,0,0.039-0.001,0.058-0.001c0.006,0,0.012,0,0.018,0c0.039,0,0.078-0.003,0.117-0.003
	c6.01-0.01,11.461-2.458,15.419-6.421c0.099-0.099,0.194-0.203,0.291-0.304c0.136-0.142,0.275-0.282,0.407-0.427
	C41.754,32.998,43.92,27.897,43.993,22.29z M2.01,22.198C2.449,22.745,3.049,23.129,3,24c-0.131,2.334,0.38,4.255,2,6
	c0.62,0.668,0.929,2.105,1,3c0.036,0.456,0.106,0.803,0.18,1.189C3.608,30.86,2.055,26.711,2.01,22.198z M11.63,37.586
	C11.923,36.8,12,35.85,12,35c0-0.703,0.405-0.782,1-1c0.925-0.34,1.134-1.132,1-2c-0.124-0.805,0.266-1.586,0.727-2.27
	C14.841,29.561,14.934,29.194,15,29c0.264-0.775-0.269-1.632-1-2c-0.766-0.386-1.214,0.348-2,0
	c-0.393-0.174-1.604-1.565-1.658-1.768C10.201,24.7,10.435,24.277,10,24c-1.023-0.651-2.547-1.322-3.453-2.137
	c-0.64-0.576-1.434-0.833-2.306-0.443c-0.371,0.166-0.635,0.039-0.849-0.288c-0.631-0.965-1.109-1.972-0.966-3.174
	c0.048-0.406,0.209-0.725,0.559-0.95c0.322-0.207,0.614-0.466,0.95-0.644c0.927-0.492,1.44-1.292,1.868-2.218
	c0.623-1.348,1.779-2.127,3.151-2.576c0.386-0.126,0.613-0.293,0.686-0.683c0.053-0.281,0.11-0.563,0.188-0.838
	c0.07-0.249,0.229-0.287,0.432-0.127c0.038,0.03,0.072,0.063,0.109,0.093c0.633,0.519,0.854,0.566,1.312,0.282
	c0.631-0.39,0.86-0.888,0.68-1.577c-0.117-0.445-0.282-0.878-0.431-1.315c-0.205-0.599-0.098-0.907,0.448-1.244
	c0.19-0.117,0.398-0.207,0.577-0.337c0.391-0.282,0.354-0.731-0.07-0.953c-0.214-0.112-0.435-0.212-0.651-0.32
	c0.25-0.14,0.504-0.276,0.762-0.406C13.613,4,14.178,3.972,15,4c-0.089,0.274-0.137,1.408-0.188,1.86
	c-0.09,0.792,0.366,1.118,1.091,0.771C16.401,6.392,17.54,6.314,18,6c0.734-0.502,2.579-0.917,3-1
	c0.815-0.16,1.547-0.882,2.15-1.461C23.494,3.208,23.683,3.355,24,3c0.11-0.123,0.266-0.529,0.399-0.844
	c0.113,0.014,0.229,0.02,0.342,0.036c2.039,0.277,3.964,0.878,5.751,1.72c-0.171,0.115-0.339,0.226-0.51,0.323
	C29.556,4.476,28.196,4.897,28,5c-0.756,0.397-1.353,1.228-1,2c0.187,0.409,0.3,0.678,0,1c-0.529,0.567-1.314,1.002-2,1
	c-1.809-0.007-2.512,1.27-2,3c0.16,0.541,0.107,1.479,1,2c-0.723,0.781-3.979,2.021-4,4c-0.007,0.702,0.076,2.302,0,3
	c0.125,1,0.616,0.936,1.113,1.667c0.538,0.791,1.254,1.394,2.069,1.893c0.715,0.439,1.03,0.716,1.818,0.44
	c0.601-0.211,1.622-0.613,2.225-0.819c0.574-0.197,0.712-0.141,1.008,0.376C28.249,24.584,29.287,27.605,30,29
	c0.199,0.389,0.19,0.548,0,1c-0.349,0.832-0.305,2.156,0,3c0.394,1.091,0.622,1.902,1,3c0.244,0.709,0.331,1.333,1,1
	c0.631-0.314,1.527-0.489,2-1c0.797-0.861,1.339-2.028,2-3c0.581-0.854,1.49-2.098,2-3c0.365-0.646,0.128-1.263,0-2
	c-0.105-0.608,1.446-3.283,2-4c0.583-0.754,1.45-1.155,1-2c-0.082-0.154-1.356-0.891-1-1c0.596-0.183,1.45-0.946,1.632-1.525
	c0.047-0.148,0.084-0.299,0.125-0.449C41.904,20,42,20.99,42,22c0,11.028-8.972,20-20,20c-3.719,0-7.193-1.039-10.179-2.815
	C11.545,38.687,11.441,38.09,11.63,37.586z M36,15c-1.121-0.063-2.888,0.153-4,0c-0.247-0.034-0.944-0.718-1-1
	c-0.125-0.625,2.559-1.026,3-1c0.587,0.035,1.871,0.943,2,1C36.339,14.149,36.393,15.022,36,15z M30.846,12.45
	C30.835,12.581,30.017,12.794,30,13c-1.319-1.227-2.397-0.329-4,0c0.501-0.55,1.538-1.595,2-2c0.146-0.128,0.801-0.102,1,0
	C29.788,11.402,30.053,11.995,30.846,12.45z"/>
</svg>
