<?xml version="1.0" encoding="utf-8"?>
<!-- Generator: Adobe Illustrator 19.2.0, SVG Export Plug-In . SVG Version: 6.00 Build 0)  -->
<svg version="1.1" id="Layer_1" xmlns="http://www.w3.org/2000/svg" xmlns:xlink="http://www.w3.org/1999/xlink" x="0px" y="0px"
	 viewBox="0 0 44 44" style="enable-background:new 0 0 44 44;" xml:space="preserve">
<style type="text/css">
	.st0{fill:#010101;}
	.st1{fill:none;}
</style>
<path class="st0" d="M44,20h-4v-4h-4v4h-4v4h4v4h4v-4h4 M14,20v4.8h8c-0.4,2-2.4,6-8,6c-4.8,0-8.6-4-8.6-8.8s3.8-8.8,8.6-8.8
	c2.8,0,4.6,1.2,5.6,2.2l3.8-3.6C21,9.4,17.8,8,14,8C6.2,8,0,14.2,0,22s6.2,14,14,14c8,0,13.4-5.6,13.4-13.6c0-1,0-1.6-0.2-2.4H14z"
	/>
</svg>
