<?xml version="1.0" encoding="utf-8"?>
<!-- Generator: Adobe Illustrator 19.2.0, SVG Export Plug-In . SVG Version: 6.00 Build 0)  -->
<svg version="1.1" id="Layer_1" xmlns="http://www.w3.org/2000/svg" xmlns:xlink="http://www.w3.org/1999/xlink" x="0px" y="0px"
	 viewBox="0 0 44 44" style="enable-background:new 0 0 44 44;" xml:space="preserve">
<style type="text/css">
	.st0{fill:#010101;}
	.st1{fill:none;}
</style>
<path d="M11,4c0-2.209,1.791-4,4-4c2.209,0,4,1.791,4,4c0,2.209-1.791,4-4,4C12.791,8,11,6.209,11,4z M16,39c-4.96,0-9-4.04-9-9
	c0-2.66,1.16-5.05,3-6.7v-4.83C5.84,20.63,3,24.98,3,30c0,7.18,5.82,13,13,13c5.23,0,9.74-3.09,11.8-7.54l-3.03-3.41
	C23.83,36.03,20.26,39,16,39z M26,24h-2h-3h-3v-8.727C19.467,16.94,21.61,18,24,18v-2c-2.782,0-5.344-1.901-6.048-4.473
	c-0.002-0.009-0.015-0.01-0.019-0.018C17.713,10.643,16.934,10,16,10h-2c-1.105,0-2,0.895-2,2v12v2c0,1.105,0.895,2,2,2h4h3h3l8,9
	l2-2L26,24z"/>
</svg>
