<?xml version="1.0" encoding="utf-8"?>
<!-- Generator: Adobe Illustrator 19.2.0, SVG Export Plug-In . SVG Version: 6.00 Build 0)  -->
<svg version="1.1" id="Layer_1" xmlns="http://www.w3.org/2000/svg" xmlns:xlink="http://www.w3.org/1999/xlink" x="0px" y="0px"
	 viewBox="0 0 44 44" style="enable-background:new 0 0 44 44;" xml:space="preserve">
<style type="text/css">
	.st0{fill:#010101;}
</style>
<path d="M31,0c-7.17,0-13,5.83-13,13c0,1.5,0.26,2.94,0.73,4.28L0,36v8h8l4-4l3,3l4.5-4.5l-3-3L18,34l3,3l4.5-4.5l-3-3l4.23-4.22
	C28.07,25.75,29.51,26,31,26c7.17,0,13-5.83,13-13C44,5.83,38.17,0,31,0z M31,24c-0.92,0-1.81-0.11-2.66-0.33
	c-0.77-0.18-1.51-0.46-2.2-0.8h-0.01l-1.47,1.47l-1.21,1.21L19.5,29.5l3,3L21,34l-3-3l-4.5,4.5l3,3L15,40l-3-3l-5,5H2v-5
	l16.46-16.46l1.2-1.19l1.47-1.48c-0.34-0.69-0.61-1.43-0.8-2.2C20.11,14.82,20,13.92,20,13c0-6.08,4.92-11,11-11s11,4.92,11,11
	C42,19.08,37.08,24,31,24z"/>
</svg>
