<?xml version="1.0" encoding="utf-8"?>
<!-- Generator: Adobe Illustrator 19.2.0, SVG Export Plug-In . SVG Version: 6.00 Build 0)  -->
<svg version="1.1" id="Layer_1" xmlns="http://www.w3.org/2000/svg" xmlns:xlink="http://www.w3.org/1999/xlink" x="0px" y="0px"
	 viewBox="0 0 44 44" style="enable-background:new 0 0 44 44;" xml:space="preserve">
<style type="text/css">
	.st0{fill:#010101;}
	.st1{fill:none;}
</style>
<path d="M28.34,23.67l-1.61,1.61L8,44H0v-8l18.73-18.72l1.6-1.61c0.19,0.77,0.46,1.51,0.8,2.2l-1.47,1.48L2,37v5h5l17.66-17.66
	l1.48-1.47C26.83,23.21,27.57,23.49,28.34,23.67z M44,13c0,7.17-5.83,13-13,13c-1.49,0-2.93-0.25-4.27-0.72
	c-0.72-0.25-1.42-0.57-2.07-0.94c-2.09-1.17-3.83-2.9-5-4.99c-0.37-0.65-0.68-1.35-0.93-2.07C18.26,15.94,18,14.5,18,13
	c0-7.17,5.83-13,13-13S44,5.83,44,13z M42,13c0-6.08-4.92-11-11-11S20,6.92,20,13c0,0.92,0.11,1.82,0.33,2.67
	c0.19,0.77,0.46,1.51,0.8,2.2c1.07,2.17,2.84,3.93,5.01,5c0.69,0.34,1.43,0.62,2.2,0.8C29.19,23.89,30.08,24,31,24
	C37.08,24,42,19.08,42,13z M31,9c-2.209,0-4,1.791-4,4s1.791,4,4,4s4-1.791,4-4S33.209,9,31,9 M31,7c3.308,0,6,2.692,6,6
	s-2.692,6-6,6s-6-2.692-6-6S27.692,7,31,7L31,7z"/>
</svg>
