<?xml version="1.0" encoding="utf-8"?>
<!-- Generator: Adobe Illustrator 19.2.0, SVG Export Plug-In . SVG Version: 6.00 Build 0)  -->
<svg version="1.1" id="Layer_1" xmlns="http://www.w3.org/2000/svg" xmlns:xlink="http://www.w3.org/1999/xlink" x="0px" y="0px"
	 viewBox="0 0 44 44" style="enable-background:new 0 0 44 44;" xml:space="preserve">
<style type="text/css">
	.st0{fill:#010101;}
	.st1{fill:none;}
</style>
<path d="M0,20h44v2H0V20z M10,8v2h34V8H10z M1.5,14L5,10.5L8.5,14l1.5-1.5L6.5,9L10,5.5L8.5,4L5,7.5L1.5,4L0,5.5L3.5,9L0,12.5
	L1.5,14z M10,32v2h34v-2H10z M1.5,38L5,34.5L8.5,38l1.5-1.5L6.5,33l3.5-3.5L8.5,28L5,31.5L1.5,28L0,29.5L3.5,33L0,36.5L1.5,38z"/>
</svg>
