<?xml version="1.0" encoding="utf-8"?>
<!-- Generator: Adobe Illustrator 19.2.0, SVG Export Plug-In . SVG Version: 6.00 Build 0)  -->
<svg version="1.1" id="Layer_1" xmlns="http://www.w3.org/2000/svg" xmlns:xlink="http://www.w3.org/1999/xlink" x="0px" y="0px"
	 viewBox="0 0 44 44" style="enable-background:new 0 0 44 44;" xml:space="preserve">
<style type="text/css">
	.st0{fill:#010101;}
	.st1{fill:none;}
</style>
<path class="st0" d="M40,40h-8V26.5c0-2.12-2.38-3.88-4.5-3.88S24,24.38,24,26.5V40h-8V16h8v4c1.32-2.14,4.72-3.52,7-3.52
	c5,0,9,4.08,9,9.02V40 M12,40H4V16h8V40 M8,4c2.2,0,4,1.8,4,4s-1.8,4-4,4s-4-1.8-4-4S5.8,4,8,4z"/>
</svg>
