<?xml version="1.0" encoding="utf-8"?>
<!-- Generator: Adobe Illustrator 19.2.0, SVG Export Plug-In . SVG Version: 6.00 Build 0)  -->
<svg version="1.1" id="Layer_1" xmlns="http://www.w3.org/2000/svg" xmlns:xlink="http://www.w3.org/1999/xlink" x="0px" y="0px"
	 viewBox="0 0 44 44" style="enable-background:new 0 0 44 44;" xml:space="preserve">
<path d="M38.73,17.1l-1.41,1.41C37.74,18.87,38,19.41,38,20v20c0,1.1-0.9,2-2,2H8c-1.1,0-2-0.9-2-2V20c0-1.1,0.9-2,2-2h21.18l2-2H10
	v-2c0-6.62,5.38-12,12-12c4.44,0,8.31,2.42,10.39,6h2.26C32.4,3.27,27.58,0,22,0C14.27,0,8,6.27,8,14v2c-2.2,0-4,1.8-4,4v20
	c0,2.2,1.8,4,4,4h28c2.2,0,4-1.8,4-4V20C40,18.86,39.51,17.82,38.73,17.1z M20.406,32.58l0.007,0.007l-1.414,1.414l-0.007-0.007
	l-1.407-1.407l-9.581-9.581l1.513-1.505L19,31.003l19.508-19.502L40.012,13L20.406,32.58z"/>
</svg>
