<?xml version="1.0" encoding="utf-8"?>
<!-- Generator: Adobe Illustrator 19.2.0, SVG Export Plug-In . SVG Version: 6.00 Build 0)  -->
<svg version="1.1" id="Layer_1" xmlns="http://www.w3.org/2000/svg" xmlns:xlink="http://www.w3.org/1999/xlink" x="0px" y="0px"
	 viewBox="0 0 44 44" style="enable-background:new 0 0 44 44;" xml:space="preserve">
<style type="text/css">
	.st0{display:none;}
</style>
<path d="M22,23c-1.66,0-3,1.34-3,3c0,0.89,0.39,1.67,1,2.22V31h4v-2.78c0.61-0.55,1-1.33,1-2.22C25,24.34,23.66,23,22,23z M22,23
	c-1.66,0-3,1.34-3,3c0,0.89,0.39,1.67,1,2.22V31h4v-2.78c0.61-0.55,1-1.33,1-2.22C25,24.34,23.66,23,22,23z M22,23
	c-1.66,0-3,1.34-3,3c0,0.89,0.39,1.67,1,2.22V31h4v-2.78c0.61-0.55,1-1.33,1-2.22C25,24.34,23.66,23,22,23z M22,23
	c-1.66,0-3,1.34-3,3c0,0.89,0.39,1.67,1,2.22V31h4v-2.78c0.61-0.55,1-1.33,1-2.22C25,24.34,23.66,23,22,23z M36,16H10v-2
	c0-6.62,5.38-12,12-12c4.44,0,8.31,2.42,10.39,6h2.26C32.4,3.27,27.58,0,22,0C14.27,0,8,6.27,8,14v2c-2.2,0-4,1.8-4,4v20
	c0,2.2,1.8,4,4,4h28c2.2,0,4-1.8,4-4V20C40,17.8,38.2,16,36,16z M38,40c0,1.1-0.9,2-2,2H8c-1.1,0-2-0.9-2-2V20c0-1.1,0.9-2,2-2h28
	c1.1,0,2,0.9,2,2V40z M22,23c-1.66,0-3,1.34-3,3c0,0.89,0.39,1.67,1,2.22V31h4v-2.78c0.61-0.55,1-1.33,1-2.22
	C25,24.34,23.66,23,22,23z M22,23c-1.66,0-3,1.34-3,3c0,0.89,0.39,1.67,1,2.22V31h4v-2.78c0.61-0.55,1-1.33,1-2.22
	C25,24.34,23.66,23,22,23z M22,23c-1.66,0-3,1.34-3,3c0,0.89,0.39,1.67,1,2.22V31h4v-2.78c0.61-0.55,1-1.33,1-2.22
	C25,24.34,23.66,23,22,23z"/>
</svg>
