<?xml version="1.0" encoding="utf-8"?>
<!-- Generator: Adobe Illustrator 19.2.0, SVG Export Plug-In . SVG Version: 6.00 Build 0)  -->
<svg version="1.1" id="Layer_1" xmlns="http://www.w3.org/2000/svg" xmlns:xlink="http://www.w3.org/1999/xlink" x="0px" y="0px"
	 viewBox="0 0 44 44" style="enable-background:new 0 0 44 44;" xml:space="preserve">
<path d="M24,28.221V31h-4v-2.779c-0.61-0.549-1-1.336-1-2.221c0-1.657,1.343-3,3-3s3,1.343,3,3C25,26.885,24.61,27.672,24,28.221z
	 M40,20v20c0,2.2-1.8,4-4,4H8c-2.2,0-4-1.8-4-4V20c0-2.2,1.8-4,4-4v-2C8,6.27,14.27,0,22,0s14,6.27,14,14v2C38.2,16,40,17.8,40,20z
	 M10,16h24v-2c0-6.62-5.38-12-12-12S10,7.38,10,14V16z M38,20c0-1.103-0.897-2-2-2H8c-1.103,0-2,0.897-2,2v20c0,1.103,0.897,2,2,2
	h28c1.103,0,2-0.897,2-2V20z"/>
</svg>
