<?xml version="1.0" encoding="utf-8"?>
<!-- Generator: Adobe Illustrator 19.2.0, SVG Export Plug-In . SVG Version: 6.00 Build 0)  -->
<svg version="1.1"
	 id="Layer_1" xmlns:cc="http://creativecommons.org/ns#" xmlns:dc="http://purl.org/dc/elements/1.1/" xmlns:rdf="http://www.w3.org/1999/02/22-rdf-syntax-ns#"
	 xmlns="http://www.w3.org/2000/svg" xmlns:xlink="http://www.w3.org/1999/xlink" x="0px" y="0px" viewBox="0 0 184.8 35.2"
	 style="enable-background:new 0 0 184.8 35.2;" xml:space="preserve">
<g transform="translate(-282.60938,-514.75281)">
	<path d="M463,514.8c-1.6,0-2.9,0.4-3.7,0.9l0.5,1.7c0.7-0.4,1.7-0.8,2.7-0.8c1.8,0,2.1,1.1,2.1,1.8v0.2c-3.8,0-6,1.3-6,3.9
		c0,1.6,1.2,3.1,3.2,3.1c1.3,0,2.4-0.6,3-1.4h0.1l0.2,1.1h2.3c-0.1-0.6-0.2-1.5-0.2-2.5v-3.7C467.2,516.8,466.3,514.7,463,514.8
		L463,514.8z M447.5,515v6c0,3.3,1.7,4.5,3.6,4.5c1.8,0,2.8-1.1,3.2-1.8h0l0.1,1.6h2.2c0-0.8-0.1-1.8-0.1-3.1V515H454v6.2
		c0,0.3,0,0.6-0.1,0.8c-0.3,0.7-0.9,1.4-2,1.4c-1.4,0-1.9-1.1-1.9-2.8V515L447.5,515L447.5,515z M290.6,518.9c-4.4,0-8,3.6-8,8V550
		h150.7c4.4,0,8-3.6,8-8v-15.1c0-4.4-3.6-8-8-8H290.6z M464.1,520.2c0.2,0,0.4,0,0.7,0v1.4c0,0.2,0,0.4-0.1,0.6
		c-0.2,0.7-1,1.4-2,1.4c-0.8,0-1.5-0.5-1.5-1.5C461.2,520.8,462.5,520.3,464.1,520.2L464.1,520.2z M344.6,522.6h1.7v8.1h0.1
		c1.1-2.2,3.2-3.5,6.1-3.5c4.2,0,7.1,3.6,7.1,8.6c0,6-3.8,9-7.4,9c-2.7,0-4.6-1.1-6-3.4h-0.1l0.1,3h-1.7L344.6,522.6L344.6,522.6z
		 M394.5,523.8h1.7v3.7h4.8v1.4h-4.8v10.9c0,2.1,0.7,3.5,2.4,3.5c0.9,0,1.5-0.1,1.9-0.2l0.2,1.2c-0.6,0.2-1.3,0.4-2.3,0.4
		c-1.2,0-2.2-0.4-2.8-1.2c-0.8-0.9-1.1-2.3-1.1-4L394.5,523.8L394.5,523.8z M307,527.2c0.2,0,0.5,0,0.7,0.1v1.6c-0.2,0-0.5,0-0.8,0
		c-2.3,0-3.9,2-4.4,4.7c-0.1,0.5-0.2,1-0.2,1.6v9.3h-1.7v-11.8c0-1.7,0-3.4-0.1-5.1h1.5l0.1,3.4h0.1
		C303,528.8,304.7,527.2,307,527.2L307,527.2z M324.5,527.2c4.8,0,5.8,3.6,5.8,6.6v6.6c0,1.3,0,2.7,0.2,4H329l-0.2-2.4h-0.1
		c-0.8,1.3-2.7,2.8-5.3,2.8c-3.4,0-4.9-2.4-4.9-4.6c0-3.9,3.4-6.2,10.2-6.2v-0.4c0-1.6-0.3-5-4.3-4.9c-1.5,0-3,0.4-4.2,1.2l-0.5-1.2
		C321.1,527.6,323,527.2,324.5,527.2L324.5,527.2z M376.3,527.2c4.6,0,7.8,3.5,7.8,8.7c0,6.2-4.3,8.9-8,8.9h0
		c-4.3,0-7.6-3.4-7.6-8.6C368.4,530.4,372.2,527.2,376.3,527.2L376.3,527.2z M418.1,527.2c4.8,0,5.8,3.6,5.8,6.6v6.6
		c0,1.3,0,2.7,0.2,4h-1.5l-0.2-2.4h-0.1c-0.8,1.3-2.7,2.8-5.3,2.8c-3.4,0-4.9-2.4-4.9-4.6c0-3.9,3.4-6.2,10.2-6.2v-0.4
		c0-1.6-0.3-5-4.3-4.9c-1.5,0-3,0.4-4.2,1.2l-0.5-1.2C414.8,527.6,416.7,527.2,418.1,527.2L418.1,527.2z M352,528.6
		c-2.4,0-4.7,1.7-5.5,4.5c-0.1,0.4-0.2,0.9-0.2,1.5v3.4c0,0.4,0,0.8,0.1,1.2c0.7,2.6,2.9,4.2,5.5,4.2c3.8,0,6-3.2,6-7.5
		C357.9,532,355.8,528.6,352,528.6L352,528.6z M376.3,528.6c-4.3,0-6.2,3.8-6.2,7.4c0,4.2,2.6,7.4,6,7.4h0.1c3.5,0,6.2-3.2,6.2-7.5
		C382.4,532.8,380.7,528.6,376.3,528.6L376.3,528.6z M327.2,535.3c-3.4,0.1-7,0.9-7,4.5c0,2.4,1.6,3.5,3.3,3.5
		c2.8,0,4.4-1.7,4.9-3.4c0.1-0.4,0.2-0.8,0.2-1v-3.6C328.2,535.3,327.7,535.3,327.2,535.3L327.2,535.3z M420.8,535.3
		c-3.4,0.1-7,0.9-7,4.5c0,2.4,1.6,3.5,3.3,3.5c2.8,0,4.4-1.7,4.9-3.4c0.1-0.4,0.2-0.8,0.2-1v-3.6
		C421.8,535.3,421.3,535.3,420.8,535.3L420.8,535.3z M430.9,541.6c0.8,0,1.4,0.7,1.4,1.6c0,0.8-0.6,1.6-1.4,1.6h0
		c-0.8,0-1.4-0.7-1.3-1.6C429.5,542.2,430.1,541.6,430.9,541.6L430.9,541.6z"/>
</g>
</svg>
