<?xml version="1.0" encoding="utf-8"?>
<!-- Generator: Adobe Illustrator 19.2.0, SVG Export Plug-In . SVG Version: 6.00 Build 0)  -->
<svg version="1.1" id="Layer_1" xmlns="http://www.w3.org/2000/svg" xmlns:xlink="http://www.w3.org/1999/xlink" x="0px" y="0px"
	 viewBox="0 0 44 44" style="enable-background:new 0 0 44 44;" xml:space="preserve">
<path d="M33,6.947L22,0L11,6.947L0,0v37.053L11,44l11-6.947L33,44l11-6.947V0L33,6.947z M2,3.629l7.932,5.01L10,8.681v32.322
	L2,35.95V3.629z M12,41.003V8.681l0.068-0.043L21,2.997v32.322l-0.068,0.043L12,41.003z M23,35.319V2.997l8.932,5.641L32,8.681
	v32.322l-8.932-5.641L23,35.319z M42,35.95l-8,5.053V8.681l0.068-0.043L42,3.629V35.95z"/>
</svg>
