<?xml version="1.0" encoding="utf-8"?>
<!-- Generator: Adobe Illustrator 19.2.0, SVG Export Plug-In . SVG Version: 6.00 Build 0)  -->
<svg version="1.1" id="Layer_1" xmlns="http://www.w3.org/2000/svg" xmlns:xlink="http://www.w3.org/1999/xlink" x="0px" y="0px"
	 viewBox="0 0 44 44" style="enable-background:new 0 0 44 44;" xml:space="preserve">
<path d="M22,12c2.206,0,4,1.794,4,4s-1.794,4-4,4s-4-1.794-4-4S19.794,12,22,12 M22,10c-3.314,0-6,2.686-6,6s2.686,6,6,6
	s6-2.686,6-6S25.314,10,22,10L22,10z M22,2c7.72,0,14,5.855,14,13.053c0,7.123-9.033,19.715-14,25.828
	C17.033,34.767,8,22.175,8,15.053C8,7.855,14.28,2,22,2 M22,0C13.163,0,6,6.739,6,15.053C6,25.474,22,44,22,44s16-18.526,16-28.947
	C38,6.739,30.837,0,22,0L22,0z"/>
</svg>
