<?xml version="1.0" encoding="utf-8"?>
<!-- Generator: Adobe Illustrator 19.2.0, SVG Export Plug-In . SVG Version: 6.00 Build 0)  -->
<svg version="1.1" id="Layer_1" xmlns="http://www.w3.org/2000/svg" xmlns:xlink="http://www.w3.org/1999/xlink" x="0px" y="0px"
	 viewBox="0 0 44 44" style="enable-background:new 0 0 44 44;" xml:space="preserve">
<path d="M43.96,21c-0.59,8.92-9.13,16.11-19.92,16.92c-0.33,0.02-0.67,0.05-1.01,0.06C22.69,37.99,22.34,38,22,38
	s-0.69-0.01-1.03-0.02c-0.34-0.01-0.68-0.04-1.01-0.06C9.17,37.11,0.63,29.92,0.04,21C0.01,21.33,0,21.67,0,22c0,9.94,9.85,18,22,18
	s22-8.06,22-18C44,21.67,43.99,21.33,43.96,21z M43.96,25c-0.59,8.92-9.13,16.11-19.92,16.92c-0.33,0.02-0.67,0.05-1.01,0.06
	C22.69,41.99,22.34,42,22,42s-0.69-0.01-1.03-0.02c-0.34-0.01-0.68-0.04-1.01-0.06C9.17,41.11,0.63,33.92,0.04,25
	C0.01,25.33,0,25.67,0,26c0,9.94,9.85,18,22,18s22-8.06,22-18C44,25.67,43.99,25.33,43.96,25z M22,2c11.028,0,20,7.178,20,16
	s-8.972,16-20,16S2,26.822,2,18S10.972,2,22,2L22,2z M22,0C9.85,0,0,8.059,0,18s9.85,18,22,18s22-8.059,22-18S34.15,0,22,0L22,0z
	 M15,12h2v8c0,2.21-1.79,4-4,4s-4-1.79-4-4v-8h2v8c0,1.1,0.9,2,2,2s2-0.9,2-2V12z M21,12l-3,12h2l0.75-3h2.5L24,24h2l-3-12H21z
	 M21.25,19L22,16l0.75,3H21.25z M36,12v12h-2v-5h-4v5h-2V12h2v5h4v-5H36z"/>
</svg>
