<?xml version="1.0" encoding="utf-8"?>
<!-- Generator: Adobe Illustrator 19.2.0, SVG Export Plug-In . SVG Version: 6.00 Build 0)  -->
<svg version="1.1" id="Layer_1" xmlns="http://www.w3.org/2000/svg" xmlns:xlink="http://www.w3.org/1999/xlink" x="0px" y="0px"
	 viewBox="0 0 44 44" style="enable-background:new 0 0 44 44;" xml:space="preserve">
<path d="M30,26c0,1.105-0.895,2-2,2s-2-0.895-2-2s0.895-2,2-2S30,24.895,30,26z M44,22v8.042c0,1.469-0.812,2.746-2,3.441V40
	c0,2.2-1.8,4-4,4H4c-2.2,0-4-1.8-4-4V12v-1V4c0-2.2,1.8-4,4-4h30c2.2,0,4,1.8,4,4v2c2.209,0,4,1.791,4,4v2v4v2.559
	C43.188,19.254,44,20.531,44,22z M40,34.042H24c-2.2,0-4-1.8-4-4V22c0-2.2,1.8-4,4-4h16v-2v-4c0-1.1-0.9-2-2-2H16H8
	c-1.105,0-2-0.895-2-2c0-1.105,0.895-2,2-2h28V4c0-1.1-0.9-2-2-2H4C2.9,2,2,2.9,2,4v3.55V12v28c0,1.1,0.9,2,2,2h34c1.1,0,2-0.9,2-2
	V34.042z M42,22c0-1.1-0.9-2-2-2H24c-1.103,0-2,0.897-2,2v8.042c0,1.103,0.897,2,2,2h16V32c1.1,0,2-0.9,2-2V22z"/>
</svg>
