<?xml version="1.0" encoding="utf-8"?>
<!-- Generator: Adobe Illustrator 19.2.0, SVG Export Plug-In . SVG Version: 6.00 Build 0)  -->
<svg version="1.1" id="Layer_1" xmlns="http://www.w3.org/2000/svg" xmlns:xlink="http://www.w3.org/1999/xlink" x="0px" y="0px"
	 viewBox="0 0 44 44" style="enable-background:new 0 0 44 44;" xml:space="preserve">
<path d="M22,2c11.028,0,20,8.972,20,20s-8.972,20-20,20S2,33.028,2,22S10.972,2,22,2 M22,0C9.85,0,0,9.85,0,22s9.85,22,22,22
	s22-9.85,22-22S34.15,0,22,0L22,0z M22,6c8.822,0,16,7.178,16,16s-7.178,16-16,16S6,30.822,6,22S13.178,6,22,6 M22,4
	C12.059,4,4,12.059,4,22s8.059,18,18,18s18-8.059,18-18S31.941,4,22,4L22,4z M15,24c0,1.1-0.9,2-2,2s-2-0.9-2-2v-8H9v8
	c0,2.21,1.79,4,4,4s4-1.79,4-4v-8h-2V24z M21,16l-3,12h2l0.75-3h2.5L24,28h2l-3-12H21z M21.25,23L22,20l0.75,3H21.25z M34,16v5h-4
	v-5h-2v12h2v-5h4v5h2V16H34z"/>
</svg>
