<?xml version="1.0" encoding="utf-8"?>
<!-- Generator: Adobe Illustrator 19.2.0, SVG Export Plug-In . SVG Version: 6.00 Build 0)  -->
<svg version="1.1" id="Layer_1" xmlns="http://www.w3.org/2000/svg" xmlns:xlink="http://www.w3.org/1999/xlink" x="0px" y="0px"
	 viewBox="0 0 44 44" style="enable-background:new 0 0 44 44;" xml:space="preserve">
<path d="M40,6H4c-2.2,0-4,1.8-4,4v4v2v18c0,2.2,1.8,4,4,4h36c2.2,0,4-1.8,4-4V16v-2v-4C44,7.8,42.2,6,40,6z M42,34
	c0,1.103-0.897,2-2,2H4c-1.103,0-2-0.897-2-2V16h40V34z M2,14v-4c0-1.103,0.897-2,2-2h36c1.103,0,2,0.897,2,2v4H2z M9,12H6v-2h3V12z
	 M14,12h-3v-2h3V12z M38,12H18v-2h20V12z"/>
</svg>
