<?xml version="1.0" encoding="utf-8"?>
<!-- Generator: Adobe Illustrator 19.2.0, SVG Export Plug-In . SVG Version: 6.00 Build 0)  -->
<svg version="1.1" id="Layer_1" xmlns="http://www.w3.org/2000/svg" xmlns:xlink="http://www.w3.org/1999/xlink" x="0px" y="0px"
	 viewBox="0 0 44 44" style="enable-background:new 0 0 44 44;" xml:space="preserve">
<path d="M40,6H4c-2.2,0-4,1.8-4,4v24c0,2.2,1.8,4,4,4h36c2.2,0,4-1.8,4-4V10C44,7.8,42.2,6,40,6z M40,8
	c0.293,0,0.569,0.067,0.82,0.18L22,27.006L3.185,8.178C3.435,8.066,3.709,8,4,8H40z M40,36H4c-1.103,0-2-0.897-2-2V10.008l20,20
	l20-19.994V34C42,35.103,41.103,36,40,36z"/>
</svg>
