<?xml version="1.0" encoding="utf-8"?>
<!-- Generator: Adobe Illustrator 19.2.0, SVG Export Plug-In . SVG Version: 6.00 Build 0)  -->
<svg version="1.1" id="Layer_1" xmlns="http://www.w3.org/2000/svg" xmlns:xlink="http://www.w3.org/1999/xlink" x="0px" y="0px"
	 viewBox="0 0 44 44" style="enable-background:new 0 0 44 44;" xml:space="preserve">
<style type="text/css">
	.st0{fill:#010101;}
	.st1{fill:none;}
</style>
<path class="st0" d="M33.66,23.482c-0.56-1.14-2.14-2.1-4.24-0.48c-2.86,2.28-7.42,2.28-7.42,2.28s-4.56,0-7.42-2.28
	c-2.1-1.62-3.68-0.66-4.24,0.48c-1,2,0.12,2.98,2.66,4.6c2.18,1.4,5.16,1.92,7.08,2.12l-1.6,1.6c-2.28,2.26-4.48,4.44-5.98,5.96
	c-0.9,0.92-0.9,2.38,0,3.24l0.28,0.32c0.9,0.9,2.38,0.9,3.28,0l5.94-5.96c2.3,2.26,4.48,4.44,6,5.96c0.9,0.9,2.36,0.9,3.28,0
	l0.26-0.32c0.92-0.86,0.92-2.32,0-3.24l-5.96-5.96L24,30.182c1.9-0.18,4.84-0.72,7-2.1C33.54,26.462,34.66,25.482,33.66,23.482
	 M22,7.142c2.76,0,5,2.24,5,4.98c0,2.76-2.24,4.98-5,4.98s-5-2.22-5-4.98C17,9.382,19.24,7.142,22,7.142 M22,22.243
	c5.6,0,10.12-4.52,10.12-10.12c0-5.58-4.52-10.12-10.12-10.12s-10.12,4.54-10.12,10.12C11.88,17.722,16.4,22.243,22,22.243z"/>
</svg>
