<?xml version="1.0" encoding="utf-8"?>
<!-- Generator: Adobe Illustrator 19.2.0, SVG Export Plug-In . SVG Version: 6.00 Build 0)  -->
<svg version="1.1" id="Layer_1" xmlns="http://www.w3.org/2000/svg" xmlns:xlink="http://www.w3.org/1999/xlink" x="0px" y="0px"
	 viewBox="0 0 44 44" style="enable-background:new 0 0 44 44;" xml:space="preserve">
<path d="M8.083,2.042c1.036,0.665,3.187,3.933,4.498,5.924c0.253,0.384,0.504,0.766,0.753,1.141
	c0.582,0.875-0.814,3.466-1.411,4.572c-0.331,0.614-0.617,1.144-0.794,1.615c-0.333,0.882-0.535,2.455,1.546,5.92
	c1.237,2.058,3.026,4.319,4.91,6.202c3.511,3.509,7.254,5.689,9.769,5.689c0.488,0,0.942-0.078,1.352-0.233
	c0.471-0.178,1.001-0.464,1.616-0.795c1.139-0.614,2.86-1.541,4.013-1.541c0.36,0,0.509,0.099,0.558,0.131
	c0.41,0.272,0.828,0.547,1.247,0.822c1.957,1.285,5.167,3.393,5.832,4.412c-0.37,1.574-1.196,2.495-2.387,3.686
	c-0.248,0.248-2.51,2.422-5.546,2.422c-1.051,0-2.104-0.265-3.132-0.789c-4.9-2.497-10.692-5.832-16.494-11.633
	c-5.957-5.955-9.22-11.673-11.625-16.48c-2.243-4.483,0.96-8.026,1.625-8.691C5.598,3.231,6.514,2.41,8.083,2.042 M8.18,0
	C8.119,0,8.059,0.005,8,0.016C5.584,0.474,4.261,1.74,3,3C1.739,4.26-1.671,8.663,1,14c2.774,5.545,6.199,11.202,12,17
	c5.764,5.762,11.475,9.184,17,12c1.423,0.725,2.785,1.007,4.04,1.007c3.414,0,6.038-2.086,6.96-3.007
	c1.261-1.26,2.542-2.605,3-5.021c0.325-1.716-4.198-4.455-8-6.979c-0.498-0.331-1.065-0.465-1.665-0.465
	C32.02,28.535,29.218,30.54,28,31c-0.184,0.07-0.401,0.104-0.645,0.104c-1.79,0-5.087-1.837-8.355-5.104
	c-3.714-3.713-6.579-8.467-6-10c0.579-1.533,3.608-5.579,2-8C12.561,4.33,9.906,0,8.18,0L8.18,0z"/>
</svg>
