<?xml version="1.0" encoding="utf-8"?>
<!-- Generator: Adobe Illustrator 19.2.0, SVG Export Plug-In . SVG Version: 6.00 Build 0)  -->
<svg version="1.1" id="Layer_1" xmlns="http://www.w3.org/2000/svg" xmlns:xlink="http://www.w3.org/1999/xlink" x="0px" y="0px"
	 viewBox="0 0 44 44" style="enable-background:new 0 0 44 44;" xml:space="preserve">
<path d="M8.18,0C8.119,0,8.059,0.005,8,0.016C5.584,0.474,4.261,1.74,3,3C1.739,4.26-1.671,8.663,1,14
	c2.774,5.545,6.199,11.202,12,17c5.764,5.762,11.475,9.184,17,12c1.423,0.725,2.785,1.007,4.04,1.007
	c3.414,0,6.038-2.086,6.96-3.007c1.261-1.26,2.542-2.605,3-5.021c0.325-1.716-4.198-4.455-8-6.979
	c-0.498-0.331-1.065-0.465-1.665-0.465C32.02,28.535,29.218,30.54,28,31c-0.184,0.07-0.401,0.104-0.645,0.104
	c-1.79,0-5.087-1.837-8.355-5.104c-3.714-3.713-6.579-8.467-6-10c0.579-1.533,3.608-5.579,2-8C12.561,4.33,9.906,0,8.18,0L8.18,0z"
	/>
</svg>
