<?xml version="1.0" encoding="utf-8"?>
<!-- Generator: Adobe Illustrator 19.2.0, SVG Export Plug-In . SVG Version: 6.00 Build 0)  -->
<svg version="1.1" id="Layer_1" xmlns="http://www.w3.org/2000/svg" xmlns:xlink="http://www.w3.org/1999/xlink" x="0px" y="0px"
	 viewBox="0 0 44 44" style="enable-background:new 0 0 44 44;" xml:space="preserve">
<style type="text/css">
	.st0{fill:#010101;}
	.st1{fill:none;}
</style>
<path d="M40,12H4c-2.2,0-4,1.8-4,4v20c0,2.2,1.8,4,4,4h6v-2H4c-1.1,0-2-0.9-2-2V16c0-1.1,0.9-2,2-2h36c1.1,0,2,0.9,2,2v20
	c0,1.1-0.9,2-2,2h-6v2h6c2.2,0,4-1.8,4-4V16C44,13.8,42.2,12,40,12z M34,2v10H10V2H34L34,2z M36,0H8v14h28V0L36,0z M8,26v18h28V26H8
	z M34,42H10V28h24V42z M30,32H14v-2h16V32z M30,36H14v-2h16V36z M30,40H14v-2h16V40z M39,18L39,18c-0.55,0-1-0.45-1-1v0
	c0-0.55,0.45-1,1-1l0,0c0.55,0,1,0.45,1,1v0C40,17.55,39.55,18,39,18z"/>
</svg>
