<?xml version="1.0" encoding="utf-8"?>
<!-- Generator: Adobe Illustrator 19.2.0, SVG Export Plug-In . SVG Version: 6.00 Build 0)  -->
<svg version="1.1" id="Layer_1" xmlns="http://www.w3.org/2000/svg" xmlns:xlink="http://www.w3.org/1999/xlink" x="0px" y="0px"
	 viewBox="0 0 44 44" style="enable-background:new 0 0 44 44;" xml:space="preserve">
<path d="M43.989,17.998L37.01,16.45c-0.14-0.39-0.3-0.76-0.47-1.13l3.819-6.019l0.027-0.027l-5.66-5.66l-0.027,0.027L28.68,7.46
	c-0.37-0.17-0.74-0.33-1.13-0.47l-1.548-6.979V0H26h-2h-4h-2h-0.002v0.011L16.45,6.99c-0.39,0.14-0.76,0.3-1.13,0.47L9.301,3.641
	L9.274,3.613l-5.66,5.66l0.027,0.027L7.46,15.32c-0.17,0.37-0.33,0.74-0.47,1.13l-6.979,1.548H0V18v2v4v2v0.002h0.011L6.99,27.55
	c0.14,0.39,0.3,0.76,0.47,1.13l-3.819,6.019l-0.027,0.027l5.66,5.66l0.027-0.027l6.019-3.819c0.37,0.17,0.74,0.33,1.13,0.47
	l1.548,6.979V44H18h2h4h2h0.002v-0.011l1.548-6.979c0.39-0.14,0.76-0.3,1.13-0.47l6.019,3.819l0.027,0.027l5.66-5.66l-0.027-0.027
	L36.54,28.68c0.17-0.37,0.33-0.74,0.47-1.13l6.979-1.548H44V26v-2v-4v-2v-0.002H43.989z M42,24.44l-4.36,0.97l-2.2,0.49
	c-0.12,0.44-0.27,0.87-0.44,1.29c-0.04,0.12-0.14,0.34-0.14,0.34c-0.18,0.42-0.38,0.82-0.59,1.22l1.2,1.89l2.4,3.77l0.002,0.003
	l-3.459,3.459L34.41,37.87l-3.77-2.4l-1.89-1.2c-0.4,0.21-0.8,0.41-1.22,0.59c0,0-0.22,0.1-0.34,0.14
	c-0.42,0.17-0.85,0.32-1.29,0.44l-0.49,2.2L24.44,42h-4.88l-0.97-4.36l-0.49-2.2c-0.44-0.12-0.87-0.27-1.29-0.44
	c-0.12-0.04-0.34-0.14-0.34-0.14c-0.42-0.18-0.82-0.38-1.22-0.59l-1.89,1.2l-3.77,2.4l-0.003,0.002l-3.459-3.459L6.13,34.41
	l2.4-3.77l1.2-1.89c-0.21-0.4-0.41-0.8-0.59-1.22c0,0-0.1-0.22-0.14-0.34c-0.17-0.42-0.32-0.85-0.44-1.29l-2.2-0.49L2,24.44v-4.88
	l4.36-0.97l2.2-0.49c0.12-0.44,0.27-0.87,0.44-1.29c0.04-0.12,0.14-0.34,0.14-0.34c0.18-0.42,0.38-0.82,0.59-1.22l-1.2-1.89
	l-2.4-3.77L6.128,9.587l3.459-3.459L9.59,6.13l3.77,2.4l1.89,1.2c0.4-0.21,0.8-0.41,1.22-0.59c0,0,0.22-0.1,0.34-0.14
	c0.42-0.17,0.85-0.32,1.29-0.44l0.49-2.2L19.56,2h4.88l0.97,4.36l0.49,2.2c0.44,0.12,0.87,0.27,1.29,0.44
	c0.12,0.04,0.34,0.14,0.34,0.14c0.42,0.18,0.82,0.38,1.22,0.59l1.89-1.2l3.77-2.4l0.003-0.002l3.459,3.459L37.87,9.59l-2.4,3.77
	l-1.2,1.89c0.21,0.4,0.41,0.8,0.59,1.22c0,0,0.1,0.22,0.14,0.34c0.17,0.42,0.32,0.85,0.44,1.29l2.2,0.49L42,19.56V24.44z M22,13
	c-4.971,0-9,4.029-9,9s4.029,9,9,9s9-4.029,9-9S26.971,13,22,13z M22,29c-3.86,0-7-3.14-7-7s3.14-7,7-7s7,3.14,7,7S25.86,29,22,29z"
	/>
</svg>
