<?xml version="1.0" encoding="utf-8"?>
<!-- Generator: Adobe Illustrator 19.2.0, SVG Export Plug-In . SVG Version: 6.00 Build 0)  -->
<svg version="1.1" id="Layer_1" xmlns="http://www.w3.org/2000/svg" xmlns:xlink="http://www.w3.org/1999/xlink" x="0px" y="0px"
	 viewBox="0 0 44 44" style="enable-background:new 0 0 44 44;" xml:space="preserve">
<path d="M33.788,32.368c3.101-3.438,5.005-7.977,5.005-12.971C38.793,8.684,30.109,0,19.396,0C8.684,0,0,8.684,0,19.396
	c0,10.712,8.684,19.396,19.396,19.396c4.995,0,9.533-1.904,12.971-5.005L42.58,44H44v-1.42L33.788,32.368z M2,19.396
	C2,9.804,9.804,2,19.396,2c9.592,0,17.396,7.804,17.396,17.396c0,9.592-7.804,17.396-17.396,17.396C9.804,36.793,2,28.989,2,19.396z
	"/>
</svg>
