<?xml version="1.0" encoding="utf-8"?>
<!-- Generator: Adobe Illustrator 19.2.0, SVG Export Plug-In . SVG Version: 6.00 Build 0)  -->
<svg version="1.1" id="Layer_1" xmlns="http://www.w3.org/2000/svg" xmlns:xlink="http://www.w3.org/1999/xlink" x="0px" y="0px"
	 viewBox="0 0 44 44" style="enable-background:new 0 0 44 44;" xml:space="preserve">
<style type="text/css">
	.st0{fill:#010101;}
	.st1{fill:none;}
</style>
<path class="st0" d="M44,24v-5.5L39,0.077V0h-1h-0.031h-24.01v0.004C11.768,0.027,10,1.804,10,4H9.99v24.01h0.021L25.958,44
	L26,43.959V44h3c1.66,0,3-1.34,3-3v-1.504L28.815,28H40C42.21,28,44,26.21,44,24z M42,24c0,1.1-0.9,2-2,2H28h-2l0.485,1.806
	L30.001,40L30,41c0,0.55-0.45,1-1,1h-2.02L12.01,27.01V4H12c0-1.1,0.9-2,2-2h23.211L42,19V24z M0,28h8V4H0V28z M2,6h4v20H2V6z"/>
</svg>
