<?xml version="1.0" encoding="utf-8"?>
<!-- Generator: Adobe Illustrator 19.2.0, SVG Export Plug-In . SVG Version: 6.00 Build 0)  -->
<svg version="1.1" id="Layer_1" xmlns="http://www.w3.org/2000/svg" xmlns:xlink="http://www.w3.org/1999/xlink" x="0px" y="0px"
	 viewBox="0 0 44 44" style="enable-background:new 0 0 44 44;" xml:space="preserve">
<style type="text/css">
	.st0{fill:#010101;}
	.st1{fill:none;}
</style>
<path d="M24.98,9.01L31.99,2l2-2h-3H13.01h-3l2,2l7.01,7.01L19,9l-7,25l1.73,1.73l6.78,6.78L22,44l1.49-1.49l6.78-6.78L32,34L25,9
	L24.98,9.01z M28.99,2L22,9l-6.99-7H28.99z M29.63,33.371L22,41.017l-7.63-7.646l0-0.001l6.411-22.599L22,11.99l1.219-1.219
	L29.63,33.37L29.63,33.371z"/>
</svg>
