<?xml version="1.0" encoding="utf-8"?>
<!-- Generator: Adobe Illustrator 19.2.0, SVG Export Plug-In . SVG Version: 6.00 Build 0)  -->
<svg version="1.1" id="Layer_1" xmlns="http://www.w3.org/2000/svg" xmlns:xlink="http://www.w3.org/1999/xlink" x="0px" y="0px"
	 viewBox="0 0 44 44" style="enable-background:new 0 0 44 44;" xml:space="preserve">
<style type="text/css">
	.st0{fill:#010101;}
	.st1{fill:none;}
</style>
<path d="M29,4H15V2h14V4z M40,24c0,9.941-8.059,18-18,18S4,33.941,4,24c0-9.941,8.059-18,18-18c4.601,0,8.785,1.741,11.968,4.581
	L35.5,9l1.5,1.5l-1.581,1.532C38.259,15.215,40,19.399,40,24z M38,24c0-8.822-7.178-16-16-16C13.178,8,6,15.178,6,24
	c0,8.822,7.178,16,16,16C30.822,40,38,32.822,38,24z M21,24h2V14h-2V24z"/>
</svg>
