<?xml version="1.0" encoding="utf-8"?>
<!-- Generator: Adobe Illustrator 19.2.0, SVG Export Plug-In . SVG Version: 6.00 Build 0)  -->
<svg version="1.1" id="Layer_1" xmlns="http://www.w3.org/2000/svg" xmlns:xlink="http://www.w3.org/1999/xlink" x="0px" y="0px"
	 viewBox="0 0 44 44" style="enable-background:new 0 0 44 44;" xml:space="preserve">
<path d="M42,0h-8v2h6.586l-7.488,7.488C30.538,6.157,26.526,4,22,4C14.268,4,8,10.268,8,18c0,7.394,5.737,13.435,13,13.95V38h-4v2h4
	v4h2v-4h4v-2h-4v-6.05c7.263-0.515,13-6.555,13-13.95c0-2.474-0.648-4.795-1.774-6.812L42,3.414V10h2V2V0H42z M22,30
	c-6.617,0-12-5.383-12-12S15.383,6,22,6s12,5.383,12,12S28.617,30,22,30z"/>
</svg>
