<?xml version="1.0" encoding="utf-8"?>
<!-- Generator: Adobe Illustrator 19.2.0, SVG Export Plug-In . SVG Version: 6.00 Build 0)  -->
<svg version="1.1" id="Layer_1" xmlns="http://www.w3.org/2000/svg" xmlns:xlink="http://www.w3.org/1999/xlink" x="0px" y="0px"
	 viewBox="0 0 44 44" style="enable-background:new 0 0 44 44;" xml:space="preserve">
<style type="text/css">
	.st0{fill:#010101;}
	.st1{fill:none;}
</style>
<path class="st0" d="M42,9.765c-1.472,0.659-3.059,1.092-4.704,1.299c1.683-0.998,2.983-2.579,3.595-4.48
	c-1.587,0.941-3.346,1.6-5.201,1.976C34.18,6.941,32.057,6,29.648,6c-4.493,0-8.164,3.614-8.164,8.075
	c0,0.64,0.076,1.261,0.21,1.845c-6.807-0.339-12.868-3.558-16.902-8.433c-0.707,1.186-1.109,2.579-1.109,4.047
	c0,2.805,1.434,5.289,3.652,6.701c-1.358,0-2.62-0.376-3.728-0.941c0,0,0,0,0,0.056c0,3.915,2.83,7.191,6.577,7.925
	c-0.688,0.188-1.415,0.282-2.161,0.282c-0.516,0-1.033-0.056-1.53-0.151c1.033,3.181,4.034,5.553,7.648,5.609
	C11.35,33.2,7.813,34.48,3.95,34.48c-0.65,0-1.3-0.038-1.95-0.113C5.633,36.664,9.954,38,14.581,38
	c15.067,0,23.346-12.311,23.346-22.984c0-0.358,0-0.696-0.019-1.054C39.514,12.833,40.891,11.402,42,9.765z"/>
</svg>
