<?xml version="1.0" encoding="utf-8"?>
<!-- Generator: Adobe Illustrator 19.2.0, SVG Export Plug-In . SVG Version: 6.00 Build 0)  -->
<svg version="1.1" id="Layer_1" xmlns="http://www.w3.org/2000/svg" xmlns:xlink="http://www.w3.org/1999/xlink" x="0px" y="0px"
	 viewBox="0 0 44 44" style="enable-background:new 0 0 44 44;" xml:space="preserve">
<path d="M22,2c4.963,0,9,4.037,9,9s-4.037,9-9,9s-9-4.037-9-9S17.037,2,22,2 M22,0c-6.075,0-11,4.925-11,11s4.925,11,11,11
	s11-4.925,11-11S28.075,0,22,0L22,0z M31,28c3.308,0,6,2.692,6,6v2c0,3.308-2.692,6-6,6H7v-8c0-3.308,2.692-6,6-6H31 M31,26H13
	c-4.4,0-8,3.6-8,8v10h26c4.418,0,8-3.582,8-8v-2C39,29.6,35.4,26,31,26L31,26z"/>
</svg>
