<?xml version="1.0" encoding="utf-8"?>
<!-- Generator: Adobe Illustrator 19.2.0, SVG Export Plug-In . SVG Version: 6.00 Build 0)  -->
<svg version="1.1" id="Layer_1" xmlns="http://www.w3.org/2000/svg" xmlns:xlink="http://www.w3.org/1999/xlink" x="0px" y="0px"
	 viewBox="0 0 44 44" style="enable-background:new 0 0 44 44;" xml:space="preserve">
<path d="M44,10H0V8h44V10z M20,20H0v2h20V20z M18,32H0v2h18V32z M32,16c-2.206,0-4,1.794-4,4c0,2.206,1.794,4,4,4s4-1.794,4-4
	C36,17.794,34.206,16,32,16 M32,14c3.314,0,6,2.686,6,6c0,3.314-2.686,6-6,6s-6-2.686-6-6C26,16.686,28.686,14,32,14L32,14z
	 M36,30.031h-8c-1.103,0-2,0.897-2,2v2h10c1.103,0,2-0.897,2-2S37.103,30.031,36,30.031 M36,28.031c2.2,0,4,1.8,4,4v0
	c0,2.209-1.791,4-4,4H24v-4c0-2.2,1.8-4,4-4H36L36,28.031z"/>
</svg>
