<?xml version="1.0" encoding="utf-8"?>
<!-- Generator: Adobe Illustrator 19.2.0, SVG Export Plug-In . SVG Version: 6.00 Build 0)  -->
<svg version="1.1" id="Layer_1" xmlns="http://www.w3.org/2000/svg" xmlns:xlink="http://www.w3.org/1999/xlink" x="0px" y="0px"
	 viewBox="0 0 44 44" style="enable-background:new 0 0 44 44;" xml:space="preserve">
<style type="text/css">
	.st0{fill:#010101;}
	.st1{fill:none;}
</style>
<path class="st0" d="M37.595,26.827c3.206,3.025,3.868,4.475,3.972,4.664c1.324,2.227-0.976,2.49-0.976,2.49h-6.206
	c0,0-0.761,0.22-2.251-0.83c-2.006-1.387-3.93-5.021-5.358-4.538c-1.097,0.361-1.546,2.629-1.704,3.755
	c-0.059,0.424-0.254,0.813-0.557,1.116l0,0C24.186,33.814,23.737,34,23.269,34H21c0,0-4.731-0.03-9.344-4.925
	c-5.068-5.336-9.536-15.84-9.536-15.84s-0.248-0.63,0.021-0.987C2.451,11.911,3,12,3,12h6c0,0,0.75,0.016,0.939,0.247
	c0.31,0.231,0.496,0.714,0.496,0.714s0.91,2.332,2.151,4.475c2.379,4.181,3.45,5.431,4.216,4.99c1.241-0.651,0.914-6.25,0.914-6.25
	s0.021-1.912-0.6-2.752c-0.476-0.651-1.386-0.861-1.779-0.903c-0.331-0.042,0.207-0.798,0.889-1.155C17.262,10.861,18.849,11,21,11
	c1.676,0,2.364-0.013,3.005,0.134c1.986,0.483,1.303,2.353,1.303,6.807c0,1.45-0.169,3.792,0.803,4.486
	c0.434,0.294,1.473-0.326,4.162-4.927c0.66-1.163,1.239-2.438,1.636-3.377C32.293,13.212,33.203,12,34.123,12H40
	c0,0,1.719,0.016,1.877,0.521c0.31,0.861-0.683,2.899-3.144,6.197C34.72,24.18,34.265,23.676,37.595,26.827z"/>
</svg>
